
<svg xmlns="http://www.w3.org/2000/svg" version="1.1" xmlns:xlink="http://www.w3.org/1999/xlink" preserveAspectRatio="none" x="0px" y="0px" width="231px" height="231px" viewBox="0 0 231 231">
<defs>
<g id="Layer3_0_FILL">
<path fill="#E0E0E0" fill-opacity="0.7490196078431373" stroke="none" d="
M 0 0
L 0 230 230 230 230 0 0 0
M 176.85 52
Q 184.1 57.9 193.2 75.45 202.35 92.95 209.35 115.55 216.3 138.15 216.85 140.35 217.4 142.5 216.9 149.85
L 219.8 157.75 201.05 165.25 195.95 157
Q 192.4 154.35 189.7 150.2 187 146.05 175.35 105.75 172.1 92.6 167.35 91
L 165.35 119.75
Q 162.15 132.6 164.85 151.9
L 168.35 175
Q 168.9 179.2 163.95 179.05
L 71.35 179.5
Q 66.65 179.25 67.4 174.15 68.1 169.05 68.1 160.3
L 68.6 159.45 69.05 153.95 73.7 140.9
Q 75.2 134.35 72.45 118.05 69.7 101.7 69.35 98 68.8 92.2 65 92.75
L 60.35 102.75
Q 42.65 150.25 36.45 155.55
L 32 164.75 9.75 158.5 11.75 149.75 12.15 144.05 30.95 92.95
Q 31.35 93.95 46.8 64.45
L 59.35 51.5
Q 72.9 42.9 83.3 41.95 88.7 41.25 92.1 39.2
L 98.45 35.35
Q 102.35 33.9 103.6 34.85 114.7 41.45 132.8 34.8 135.4 38.55 152.35 40 162.2 40.8 168.7 44.9 169.6 46.05 176.85 52 Z"/>
</g>

<g id="Layer2_0_FILL">
<path fill="#FFFFFF" stroke="none" d="
M 132.35 36.45
Q 132.4140625 36.36015625 132.45 36.25 132.7873046875 35.512109375 133 35.05 132.8875 34.926171875 132.8 34.8 114.7 41.45 103.6 34.85 103.0671875 34.444921875 102.05 34.45
L 102.05 36
Q 102.1009765625 36.09765625 102.25 36.45 102.83515625 37.8400390625 103.45 39.35 104.9439453125 42.68046875 109.6 52.2 114.3005859375 61.7076171875 116.15 64.7 117.5099609375 63.156640625 122.8 55.15 128.1435546875 47.137109375 128.6 45.4 128.66640625 45.5248046875 128.7 45.65
L 128.65 45.4
Q 131.640625 39.997265625 132.35 36.45
M 102.05 36.15
L 102.1 36.25
Q 102.067578125 36.1888671875 102.05 36.1
L 102.05 36.15 Z"/>
</g>

<g id="Layer1_0_FILL">
<path fill="#000000" fill-opacity="0.2980392156862745" stroke="none" d="
M 134.2 36
Q 134.2 35.9 134.15 35.85 134.1 35.45 133.65 35.1 133.05 34.6 132.35 34.65 132.25 34.65 131.1 35.25 130.65 35.5 130.1 35.4 129.6 35.3 129.35 35.4 129.1 35.6 129 36.05 129 36.45 129.1 36.65 129.2 36.8 129.35 36.95
L 129.35 37
Q 129.4 37 129.5 37 129.7 37 129.9 37.1 130 37.15 130.05 37.25 133.2 41.35 127.35 42 126.85 42 126.4 42.15 119.5 44.85 112.35 43 111.85 43 111.35 43 108.05 43 105.7 42.15 105.5 42.05 105.35 42
L 104.95 42 104.95 41.95
Q 104.5 41.65 104.25 40.9 103.5 38.75 103.35 38.5 103.35 38.25 103.35 38 103.35 37.5 103.35 37 103.85 37 104.35 37 104.85 37 105.35 37 105.35 36.5 105.35 36 105.7 36 106.05 36 105.45 35.7 104.35 35 104.35 35.4 103.35 34.85 102.35 34.3 98.85 35.25 100.35 36.5 100.35 37 100.65 36.9 100.9 36.9 100.95 37.25 101.15 37.55
L 102.95 41.55
Q 102.5 40.85 101.9 39.95 106.95 50.95 112.45 61.15 114.35 64.65 115.25 66.4 118.1 65.3 120 62.45 120.75 61.3 121.45 60.25 121.2 60.7 120.9 61.25
L 129.35 47
Q 130.75 45.75 131.15 44.7 131.35 44.45 131.35 44 131.35 43.5 131.35 43 132.35 40 133.75 37.2 133.8 37.1 134.2 36
M 129.65 43.3
Q 129.6 43.35 129.1 44.35 128.6 45.35 126.25 49.6 123.9 53.8 116 64.6 113.35 60.2 105.6 43.55 115.75 45.65 120.3 44.85 124.05 44.2 127.35 43 128.55 43 129.65 43.3
M 164.65 123.7
Q 164.8 123.05 165.45 117.35 164.69921875 122.60546875 164.25 125.35 164.475 124.18125 164.65 123.7
M 211 120.2
Q 210.45 117.3 209.7 116.25 208.9 115.2 206.15 107.1 203.35 99 204.95 107.75 206.5 116.5 207.45 120.6 208.4 124.7 211.1 129.65 211.95 131.3 212.15 132 212.5 133.3 212.55 136 212.65 136.8 214.05 138.4 215.45 140 215.25 141.05 215 142.05 214.6 143.35 214.15 144.6 212.25 148.65 210.35 152.65 211.8 152.7 213.2 152.75 214.35 153.5 215.45 154.2 215.55 155.1 215.65 156 215.85 157.95 216 159.9 217.15 159 218.25 158.05 218.7 157.65 219.15 157.3 219.3 156.75 219.5 155.9 219.1 154.6 218.55 153.05 217.95 152.15 217.25 150.95 217.1 150.55 216.85 149.7 217.05 147.9 217.4 144.85 217.45 143.5 217.55 141.05 217 139.15 216 136.65 215.45 134.95 214.85 133.25 214.25 132.1 213.65 130.9 213.5 128.8 213.3 126.65 212.75 125.6 211.5 123.05 211 120.2
M 163.95 44.15
Q 166.75 43.95 166.5 43.65 166.2 43.3 161.35 42 161.15 41.65 160.75 41.5 160.4 41.35 158.85 41.1 159.35 42.5 159.35 43 159.35 47 157.35 49 156.45 73.3 164.35 89.05 164.45 89.4 164.8 90.55 164.3 103.7 164.3 107.55 164.3 112 162.9 115.7 161.45 119.4 159.35 127 157.6 136.6 158.15 149.95 158.4 156.5 161.5 160.3 165.2 165.55 159.35 169 153.7 173.85 143.35 173.75 116.8 173.6 86.35 173.5 85.85 173.5 85.4 173.55 77.5 174.3 75.35 170 75.35 169 75.35 168
L 75.35 167
Q 73.4 167.95 72.65 165.9 70.7 160.2 72.7 153.9 74.65 147.6 74.85 143.75 76.2 134.15 75.9 133.7 75.65 133.2 76.55 130.8 77.4 128.4 76.9 121.95 76.85 121.5 76.75 121.15 74.4 112.9 71.35 105 72.95 99.55 75.3 96.5
L 76.95 96.5
Q 77.3 96 77.6 95.5 80 91.85 77.4 90.9 73.2 89.35 76.85 86.4 77.35 86 77.5 85 79.25 73.9 78.35 62.9 77.8 56.5 76.1 52.1 75.85 51.5 75.75 50.95 75.1 46.4 79.6 48.4 79.85 48.5 80.35 48 79.85 47 79.05 46.4 75.6 43.95 84.05 44.55 85.1 44.6 86.3 44.7 89.9 45 93.4 45.45 93.85 45.5 94.35 45 95.35 44.1 97.2 44 97.3 44.1 97.4 44.2 97.65 44.5 97.75 46.45 102.95 56.25 109.25 66.35 115.55 76.45 118 73.15 132.75 54.25 136.05 47.9 139.35 41.5 140.35 40.4 141.25 39.25 142.25 39.1 142.3 39.1 142.35 39.1 142.35 39.05 142.35 39 142.3 39 142.25 39 142.35 38.9 142.4 38.7 142.5 38.2 141.6 38.2 140.65 38.2 139.6 38.15 138.5 38.1 137.7 37.8 136.9 37.45 136.6 37.7 136.3 38 136.3 38.7 136.3 38.95 136.3 39.9
L 136.3 40
Q 136.2 41.05 135.95 41.95 135.75 42.45 135.45 43.1
L 135.2 43.85
Q 134.7 45.05 134.3 45.55 134.35 45.7 134.35 45.8 134 46.35 133.45 47
L 132.75 50.55
Q 130.2 53.75 129.35 55.7 128.45 57.65 124.8 61.15
L 120.1 67.3
Q 116.35 75.3 114.15 71.1 111.9 66.85 108.1 61.15 104.3 55.45 103.6 52.45 102.85 49.4 102.4 48.85 101.95 48.3 101.5 47.9 101.05 47.35 100.35 46.05 100.15 45.65 99.95 45.3
L 99.95 45.25
Q 99.7 44.6 99.35 44
L 99.3 44
Q 99.05 43.5 98.8 43.1 98.7 42.5 98.35 42.25 96.1 34.75 92.8 39.2 88.5 40.65 84.05 41.7 80.75 42.45 77.35 43 76.85 43 75.45 42.85 74.05 42.7 67.1 46 62.1 49 65.25 48 67.25 47.35 67.55 47.15 71.75 47.2 72.2 48.8 72.4 49.5 72.45 50.1 72.95 55.95 73.65 60.1 74.35 64 75.3 67.75 76.45 72.4 75.35 75 75.8 77.95 72.45 76.7 71.85 76.5 71.55 76.6 67.35 78 63.65 80.5 62.9 81 63.1 81.75 64.5 86.45 61.35 89 61.1 90.1 59.15 96.95
L 59.2 96.9
Q 58 102.3 49.65 122.45 38.15 150.1 35.4 153.65 34.85 154.3 33.65 154.9 33.3 154.55 32.05 154.9 30.7 155.2 30.1 155 29.5 154.75 27 153.9
L 22.05 152.75
Q 21.45 152.6 20.2 152.35 19.1 152.1 18.4 151.8 17.5 151.4 17 151.4 16.65 151.4 16.4 151.55 16.6 151.75 16.9 151.95 22.2 156.1 24.35 156.8
L 29.75 156.8 29.75 160.45
Q 20.9 161.2 12.6 159.3
L 32 164.75 35.5 156.1
Q 43.1 148.55 58.4 107.95
L 64.85 93.15
Q 65.55 93 66.7 92.95
L 67.1 92.9
Q 67.4 92.85 67.65 92.95 67.7 93.1 67.75 93.3
L 68.65 95.6
Q 68.85 96.15 69 96.5 69.15 97.1 69.2 97.3 69.45 98.3 69.5 99.25
L 69.6 102.2
Q 69.6 103.4 69.45 104.5
L 69.1 106.1
Q 68.95 106.95 69.65 108.45 70.3 109.95 71.1 112.7 71.9 115.4 71.95 115.8 72 116.15 73.55 126.1 75.1 136.05 73.3 141.65 71.5 147.2 69.4 155.25 67.3 163.25 67.75 164.3
L 67.75 164.35
Q 67.7 164.95 67.65 165.85 67.3 170.9 67.2 171.25 67.15 171.25 67.15 171.3 67.1 171.55 67.15 171.9 67.2 172.35 67.35 173 67.35 178.05 70.2 178.95 71.9 179 72.95 178.9 74.95 178.75 89.05 179.25 103.15 179.7 133.35 179.25 148.35 179.05 161.8 179.5 168.2 179.85 168.2 175.85 168.2 175.7 168.2 175.55 168 174.4 167.8 173.05 165.35 158.7 163.85 147.65 162.3 136.55 163.3 130.8 163.65 128.6 163.95 127.1 163.3 130 165.2 117.2 166.45 108.3 165.8 106.5 166.45 104.9 167.35 98.7 167.25 97.5 167.25 96.5
L 167.4 92.2
Q 167.55 91.3 167.85 91.15 173.1 91.25 179.3 119.55
L 178.8 107.5
Q 175.7 89.65 166.6 84.5 165.4 81.5 164.5 81.3 161.25 80.6 160.5 76.15 158.25 63.6 159.35 47 161.1 44.35 163.95 44.15
M 71.4 85
Q 71.4 83.5 71.35 82 73.1 78.8 73.45 80.25 74.35 83.5 74.15 86.05 73.9 90.25 72.05 87.55 71.4 86.5 71.4 85
M 78.8 176.25
Q 78.35 176 78.35 175 98.75 176.6 121.35 176.25 129.55 176.1 132.45 175.6 140.1 174.25 145.35 176 118.4 178.55 88.35 178.45 82.45 178.45 78.8 176.25 Z"/>
</g>

<path id="Layer3_0_1_STROKES" stroke="#000000" stroke-width="1" stroke-linejoin="round" stroke-linecap="round" fill="none" d="
M 0 0
L 230 0 230 230 0 230 0 0 Z"/>

<path id="Layer0_0_1_STROKES" stroke="#000000" stroke-width="1" stroke-linejoin="round" stroke-linecap="round" fill="none" d="
M 68.1 160.3
Q 68.05 168.6 67.35 174 66.65 179.35 73 179
L 163.95 179.05
Q 168.9 179.2 168.35 175
L 165.35 155.15
Q 162.2 141.3 163.85 127.5 167.3 107.1 167.35 91 172.1 92.6 175.35 105.75 187 146.05 189.7 150.2 192.4 154.35 195.95 157
L 201.05 165.25 219.8 157.75 216.9 149.85
Q 217.4 142.5 216.45 138.75 215.55 134.95 203.3 98.3 191 61.6 168.7 44.9 162.2 40.8 152.35 40 135.4 38.55 132.8 34.8 114.7 41.45 103.6 34.85 102.35 33.9 98.45 35.35
L 92.1 39.2
Q 88.7 41.25 83.3 41.95 71.4 42 55.85 54.5
L 46 65.55 30.95 93.2 12.15 144.05 11.75 149.75 9.75 158.5 32 164.75 36.45 155.55
Q 42.65 150.25 60.35 102.75
L 65 92.75
Q 68.8 92.2 69.35 98 68.75 105.45 72.1 117 75.7 137.3 72.65 144.55 69.6 151.8 68.15 159.85"/>
</defs>

<g transform="matrix( 1, 0, 0, 1, 0,0) ">
<use xlink:href="#Layer3_0_FILL"/>

<use xlink:href="#Layer3_0_1_STROKES"/>
</g>

<g transform="matrix( 1, 0, 0, 1, 0,0) ">
<use xlink:href="#Layer2_0_FILL"/>
</g>

<g transform="matrix( 1, 0, 0, 1, 0,0) ">
<use xlink:href="#Layer1_0_FILL"/>
</g>

<g transform="matrix( 1, 0, 0, 1, 0,0) ">
<use xlink:href="#Layer0_0_1_STROKES"/>
</g>
</svg>
