
<svg xmlns="http://www.w3.org/2000/svg" version="1.1" xmlns:xlink="http://www.w3.org/1999/xlink" preserveAspectRatio="none" x="0px" y="0px" width="231px" height="231px" viewBox="0 0 231 231">
<defs>
<g id="Layer3_0_FILL">
<path fill="#B3B3B3" fill-opacity="0.4980392156862745" stroke="none" d="
M 0 0
L 0 230 230 230 230 0 0 0 Z"/>
</g>

<g id="Layer2_0_FILL">
<path fill="#FFFFFF" stroke="none" d="
M 168.35 175
L 164.85 151.65
Q 161.2 139.05 163.85 128
L 167.15 93.35
Q 156.05 90.55 150.7 39.9 143.4 39.25 141.55 38.5 141.35 38.4 141.2 38.35 134.1 41.95 125.85 43.35 114.5 44.25 104.95 42.85
L 92.1 39.2
Q 88.7 41.25 83.05 42.2 84.5 82.8 68.8 95.3 69.2 96.4 69.35 98 68.75 105.45 71.1 114 72.6 121.1 73.7 130.7 74.8 140.25 70.85 149.9
L 68.1 160.3
Q 68.05 168.6 67.35 174 66.65 179.35 73 179
L 163.95 179.05
Q 168.9 179.2 168.35 175 Z"/>
</g>

<g id="Layer1_0_FILL">
<path fill="#000000" fill-opacity="0.2980392156862745" stroke="none" d="
M 165.45 117.35
Q 164.69921875 122.60546875 164.25 125.35 164.475 124.18125 164.65 123.7 164.8 123.05 165.45 117.35
M 167.35 98.7
Q 167.2 96.15 167.2 94.45 167.25 94.4 167.3 94.3 167.5 93.9 167.25 93.55 167.25 93.25 167.3 92.95
L 166.5 92.95
Q 166.3 92.85 166.05 92.75 164.2 91.85 162.2 88.8 159.75 84.95 158.1 81.05 157.5 79.55 157.35 78.75 157.3 76.95 157.15 76.8 156.95 76.65 156.65 74.85 156.35 73.05 155.35 70.3 154.35 67.5 154 65.65 153.85 64.8 153.8 63.35 153.75 61.6 153.7 61 153.6 60.25 152.7 55.95 151.6 51 151.1 40.95 151.05 40.35 150.8 39.9 150.5 39.35 150.05 39.45 149.4 39.55 149.4 40.9 150 51.65 151.2 56.9 152 60.75 152.05 61.3 152.2 62.7 154 70.55 155.65 77.65 158.9 85.7 159.85 88.65 160.9 89.8 162.6 92.4 164.35 93.7 164.3 103.85 164.3 107.55 164.3 112 162.9 115.7 161.45 119.4 159.35 127 157.6 136.6 158.15 149.95 158.4 156.5 161.5 160.3 165.2 165.55 159.35 169 153.7 173.85 143.35 173.75 116.8 173.6 86.35 173.5 85.85 173.5 85.4 173.55 77.5 174.3 75.35 170 75.35 169 75.35 168
L 75.35 167
Q 73.4 167.95 72.65 165.9 70.7 160.2 72.7 153.9 74.65 147.6 74.85 143.75 76.2 134.15 75.9 133.7 75.65 133.2 76.55 130.8 77.4 128.4 76.9 121.95 76.85 121.5 76.75 121.15 74.4 112.9 71.35 105 73.4 98 76.7 94.95 80 91.85 77.4 90.9 76.45 90.55 75.9 90.15 78.6 86.15 79.5 83.85 80.2 82.15 81.1 78.45 83 70.5 83.45 66.3 83.65 64.6 83.85 61.2
L 84.2 56.35
Q 84.65 48.75 84.45 44.55 85.25 43.85 85.8 43.55 86.3 43.25 87.9 42.55 89.5 41.85 90.2 45.1 90.5 46.2 91 47.4 91.3 48.1 94.05 53.35 94.6 54.35 95.6 56.35 96.55 58.1 97.45 59.2 100.35 62.85 105.55 65.65 110.7 68.4 118.4 67.45 126.1 66.5 132.1 59.85 138.65 52.75 139.45 50.45 140.25 48.15 141.65 44.25 143 40.35 141.9 38.45 141.4 37.65 140.75 37.85 140.25 38.05 140.25 38.85 140.3 39.25 140.55 39.95 140.7 40.9 138.45 48.25 137.95 49.9 137.45 50.85 137.25 51.9 136 53.6 130.65 60.85 124.65 64 118.65 67.15 114.1 66.95 109.5 66.7 105.95 64.55 102.4 62.4 100.2 59.95 98 57.5 95.9 53.4
L 93.75 49.2
Q 92.55 46.85 92.1 45.6 91.75 44.7 91.6 43.9
L 91.6 39.6
Q 89.1 40.4 86.55 41.1 84.55 41.6 82.55 42.05
L 82.55 44.45
Q 82.7 44.45 82.8 44.45 83.05 49.7 82.2 61.45 81.8 66.2 81.75 66.45 81.3 70.2 79.6 77.5 78.55 81.85 77.8 83.55 76.9 85.65 74.3 89.45 74.2 89.6 74.15 89.75 72.3 91.8 69.05 95
L 68.45 95 68.65 95.6
Q 69.15 96.95 69.2 97.3 69.45 98.3 69.5 99.25
L 69.6 102.2
Q 69.6 103.4 69.45 104.5
L 69.1 106.1
Q 68.95 106.95 69.65 108.45 70.3 109.95 71.1 112.7 71.9 115.4 71.95 115.8 72 116.15 73.55 126.1 75.1 136.05 73.3 141.65 71.5 147.2 69.4 155.25 67.3 163.25 67.75 164.3
L 67.75 164.35
Q 67.7 164.95 67.65 165.85 67.3 170.9 67.2 171.25 67.15 171.25 67.15 171.3 67.1 171.55 67.15 171.9 67.2 172.35 67.35 173 67.35 178.05 70.2 178.95 71.9 179 72.95 178.9 74.95 178.75 89.05 179.25 103.15 179.7 133.35 179.25 148.35 179.05 161.8 179.5 168.2 179.85 168.2 175.85 168.2 175.7 168.2 175.55 168 174.4 167.8 173.05 165.35 158.7 163.85 147.65 162.3 136.55 163.3 130.8 163.65 128.6 163.95 127.1 163.3 130 165.2 117.2 166.45 108.3 165.8 106.5 166.45 104.9 167.35 98.7
M 78.8 176.25
Q 78.35 176 78.35 175 98.75 176.6 121.35 176.25 129.55 176.1 132.45 175.6 140.1 174.25 145.35 176 118.4 178.55 88.35 178.45 82.45 178.45 78.8 176.25 Z"/>
</g>

<path id="Layer3_0_1_STROKES" stroke="#000000" stroke-width="1" stroke-linejoin="round" stroke-linecap="round" fill="none" d="
M 0 0
L 230 0 230 230 0 230 0 0 Z"/>

<path id="Layer0_0_1_STROKES" stroke="#000000" stroke-width="1" stroke-linejoin="round" stroke-linecap="round" fill="none" d="
M 104.95 42.85
L 92.1 39.2
Q 88.7 41.25 83.05 42.2 84.5 82.8 68.8 95.3 69.2 96.4 69.35 98 68.75 105.45 71.1 114 72.6 121.1 73.7 130.7 74.8 140.25 70.85 149.9
L 68.1 160.3
Q 68.05 168.6 67.35 174 66.65 179.35 73 179
L 163.95 179.05
Q 168.9 179.2 168.35 175
L 164.85 151.65
Q 161.2 139.05 163.85 128
L 167.15 93.35
Q 156.05 90.55 150.7 39.9 143.4 39.25 141.55 38.5 141.35 38.4 141.2 38.35 134.1 41.95 125.85 43.35 114.5 44.25 104.95 42.85 Z"/>
</defs>

<g transform="matrix( 1, 0, 0, 1, 0,0) ">
<use xlink:href="#Layer3_0_FILL"/>

<use xlink:href="#Layer3_0_1_STROKES"/>
</g>

<g transform="matrix( 1, 0, 0, 1, 0,0) ">
<use xlink:href="#Layer2_0_FILL"/>
</g>

<g transform="matrix( 1, 0, 0, 1, 0,0) ">
<use xlink:href="#Layer1_0_FILL"/>
</g>

<g transform="matrix( 1, 0, 0, 1, 0,0) ">
<use xlink:href="#Layer0_0_1_STROKES"/>
</g>
</svg>
