
<svg xmlns="http://www.w3.org/2000/svg" version="1.1" xmlns:xlink="http://www.w3.org/1999/xlink" preserveAspectRatio="none" x="0px" y="0px" width="231px" height="231px" viewBox="0 0 231 231">
<defs>
<g id="Layer3_0_FILL">
<path fill="#B3B3B3" fill-opacity="0.4980392156862745" stroke="none" d="
M 0 0
L 0 230 230 230 230 0 0 0 Z"/>
</g>

<g id="Layer2_0_FILL">
<path fill="#FFFFFF" stroke="none" d="
M 198.35 64
Q 201.4 57.55 196.35 55.9 175.1 49.25 168.7 44.9 162.2 40.8 152.35 40 135.4 38.55 132.8 34.8 114.7 41.45 103.6 34.85 102.35 33.9 98.45 35.35
L 92.1 39.2
Q 88.7 41.25 83.3 41.95 71.4 42 59.35 51
L 50.8 58.1
Q 43.7 62.85 39.2 63.95 34.6 65.5 36.65 71.5
L 52 96.45
Q 54.15 99.3 59.35 97
L 65 92.75
Q 68.8 92.2 69.35 98 68.75 105.45 70.85 113.5 73 120.4 74.2 128.9 75.35 137.4 68.1 162.25 68 169.6 67.4 174.15 66.65 179.25 71.35 179.5
L 163.95 179.05
Q 168.9 179.2 168.35 175
L 165.1 151.9
Q 160.95 140.4 163.95 129.25
L 167.35 91 181.35 91
Q 187 91.4 188.35 88
L 198.35 64 Z"/>
</g>

<g id="Layer1_0_FILL">
<path fill="#000000" fill-opacity="0.2980392156862745" stroke="none" d="
M 134.2 36
Q 134.2 35.9 134.15 35.85 134.1 35.45 133.65 35.1 133.05 34.6 132.35 34.65 132.25 34.65 131.1 35.25 130.65 35.5 130.1 35.4 129.6 35.3 129.35 35.4 129.1 35.6 129 36.05 129 36.45 129.1 36.65 129.2 36.8 129.35 36.95
L 129.35 37
Q 129.4 37 129.5 37 129.7 37 129.9 37.1 130 37.15 130.05 37.25 133.2 41.35 127.35 42 126.85 42 126.4 42.15 119.5 44.85 112.35 43 111.85 43 111.35 43 108.05 43 105.7 42.15 105.5 42.05 105.35 42
L 104.95 42 104.95 41.95
Q 104.5 41.65 104.25 40.9 103.5 38.75 103.35 38.5 103.35 38.25 103.35 38 103.35 37.5 103.35 37 103.85 37 104.35 37 104.85 37 105.35 37 105.35 36.5 105.35 36 105.7 36 106.05 36 105.45 35.7 104.35 35 104.35 35.4 103.35 34.85 102.35 34.3 98.85 35.25 100.35 36.5 100.35 37 100.65 36.9 100.9 36.9 100.95 37.25 101.15 37.55
L 103.2 42.1
Q 103.8 43.4 104.25 43.8 104.3 43.85 104.35 43.9 104.35 43.95 104.35 44 105.5 45.4 106.65 46.7 107.4 48.3 108.55 49.2 109.4 49.8 111.05 50.4 113.3 51.15 114.15 51.35 116.1 51.75 119.15 51.45 124.35 50.8 125.75 49.9 127.15 48.95 127.3 48.8
L 129.35 47
Q 130.75 45.75 131.15 44.7 131.35 44.45 131.35 44 131.35 43.5 131.35 43 132.35 40 133.75 37.2 133.8 37.1 134.2 36
M 127.35 43
Q 128.55 43 129.65 43.3 129.6 43.35 129.1 44.35 128.6 45.35 126.9 47.25 125.2 49.1 118.25 50.1 108.8 49.35 106.1 43.55 115.75 45.65 120.3 44.85 124.05 44.2 127.35 43
M 165.45 117.35
Q 164.69921875 122.60546875 164.25 125.35 164.475 124.18125 164.65 123.7 164.8 123.05 165.45 117.35
M 163.95 44.15
Q 166.75 43.95 166.5 43.65 166.2 43.3 161.35 42 161.15 41.65 160.75 41.5 160.4 41.35 158.85 41.1 159.35 42.5 159.35 43 159.35 47 157.35 49 156.45 73.3 164.35 89.05 164.3 103.05 164.3 107.55 164.3 112 162.9 115.7 161.45 119.4 159.35 127 157.6 136.6 158.15 149.95 158.4 156.5 161.5 160.3 165.2 165.55 159.35 169 153.7 173.85 143.35 173.75 116.8 173.6 86.35 173.5 85.85 173.5 85.4 173.55 77.5 174.3 75.35 170 75.35 169 75.35 168
L 75.35 167
Q 73.4 167.95 72.65 165.9 70.7 160.2 72.7 153.9 74.65 147.6 74.85 143.75 76.2 134.15 75.9 133.7 75.65 133.2 76.55 130.8 77.4 128.4 76.9 121.95 76.85 121.5 76.75 121.15 74.4 112.9 71.35 105 73.4 98 76.7 94.95 80 91.85 77.4 90.9 73.2 89.35 76.85 86.4 77.35 86 77.5 85 79.25 73.9 78.35 62.9 77.8 56.5 76.1 52.1 75.85 51.5 75.75 50.95 75.1 46.4 79.6 48.4 79.85 48.5 80.35 48 79.85 47 79.05 46.4 75.2 43.65 86.3 44.7 86.45 44.7 86.55 44.75 90 45 93.4 45.45 93.85 45.5 94.35 45 95.35 44.1 97.2 44 97.3 44.1 97.4 44.2 97.65 44.5 97.75 46.45 102.6 52.45 111.5 55.1 120.4 57.75 129.75 53.15 134.05 49.7 136.7 45.6 139.35 41.5 140.35 40.4 141.25 39.25 142.25 39.1 142.3 39.1 142.35 39.1 142.35 39.05 142.35 39 142.3 39 142.25 39 142.35 38.9 142.4 38.7 142.5 38.2 141.6 38.2 140.65 38.2 139.6 38.15 138.5 38.1 137.7 37.8 136.9 37.45 136.6 37.7 136.3 38 136.3 38.7 136.3 38.95 136.3 39.9
L 136.3 40
Q 136.2 41.05 135.95 41.95 135.75 42.45 135.45 43.1
L 135.2 43.85
Q 134.7 45.05 134.3 45.55 134.35 45.7 134.35 45.8 134 46.35 133.45 47
L 131.75 49.3
Q 131.05 50.3 130.45 50.75 130.1 51.1 129.05 51.65
L 126.1 53.1
Q 124.65 53.8 123.15 54.2 122.15 54.6 117.7 54.45 113.2 54.25 108.75 52.1 104.25 49.9 103.5 49.35 102.85 49 102.45 48.7 101.95 48.3 101.5 47.9 101.05 47.35 100.35 46.05 100.15 45.65 99.95 45.3
L 99.95 45.25
Q 99.7 44.6 99.35 44
L 99.3 44
Q 99.05 43.5 98.8 43.1 98.7 42.5 98.35 42.25 96.1 34.75 92.8 39.2 89.7 40.25 86.55 41.1 82.05 42.25 77.35 43 76.85 43 75.45 42.85 74.05 42.7 67.1 46 62.1 49 65.25 48 67.25 47.35 67.55 47.15 71.75 47.2 72.2 48.8 72.4 49.5 72.45 50.1 72.95 55.95 73.65 60.1 74.35 64 75.3 67.75 76.45 72.4 75.35 75 75.8 77.95 72.45 76.7 71.85 76.5 71.55 76.6 67.35 78 63.65 80.5 62.9 81 63.1 81.75 64.5 86.45 61.35 89 58.9 93.65 56.95 90.25 49.6 77.75 42.35 65 50.95 65.4 56.65 68.4 56.85 68.5 56.8 68.05 56.45 64.9 54 63.65 48.7 60.85 55.05 58.3 58.35 57 60 50.9 58.45 51.85 56 53.45 54.1 54.6 49.3 58.85 49 59.7 46.8 60.55 44.55 61.4 44.35 62 43.85 62 43.6 62.25 42.85 63 41.95 63.6
L 41.85 63.4
Q 41.55 63.1 41.1 63.1 40.55 63.1 40.3 63.6 40.25 63.75 40.2 63.85 39.9 63.9 39.55 64.1
L 38.9 64.5
Q 38.55 64.35 38.05 64.5 37.7 64.65 37.5 64.95 37.3 65.05 37 65.35
L 36.6 65.8
Q 36.35 66.25 36.55 67.25
L 36.55 69.25
Q 36.55 69.3 36.55 69.35 36.5 69.55 36.55 69.8 36.55 69.85 36.6 69.95 36.65 70.7 36.95 71.2
L 37.15 71.6 37.25 72.1
Q 37.3 72.3 37.55 72.65 37.9 73.4 38.1 73.5 38.2 73.6 38.35 73.65
L 39.25 75
Q 39.35 75.15 39.55 75.5 39.6 75.55 39.65 75.6 39.85 76.05 40.05 76.55 40.95 78.55 41.5 79.5 42.6 81.5 44.15 83.7 46.85 87.7 48.25 89.65 48.8 90.4 49.05 90.95
L 49.45 92.05
Q 49.75 92.65 50.55 93.7 50.7 93.9 50.95 94.3 50.85 94.75 51.2 95.25 51.4 95.6 51.9 96.3 52.05 96.5 52.3 96.95 52.5 97.3 52.8 97.4 53.15 97.5 53.85 97.4 54.25 97.4 54.9 97.75 55.45 97.95 56.6 97.75 57.1 97.7 58.1 97.4 59.25 96.95 60.35 96.1
L 63.55 93.6
Q 64.3 93.05 67.1 92.9 67.4 92.85 67.65 92.95 67.7 93.1 67.75 93.3
L 68.65 95.6
Q 69.15 96.95 69.2 97.3 69.45 98.3 69.5 99.25
L 69.6 102.2
Q 69.6 103.4 69.45 104.5
L 69.1 106.1
Q 68.95 106.95 69.65 108.45 70.3 109.95 71.1 112.7 71.9 115.4 71.95 115.8 72 116.15 73.55 126.1 75.1 136.05 73.3 141.65 71.5 147.2 69.4 155.25 67.3 163.25 67.75 164.3
L 67.75 164.35
Q 67.7 164.95 67.65 165.85 67.3 170.9 67.2 171.25 67.15 171.25 67.15 171.3 67.1 171.55 67.15 171.9 67.2 172.35 67.35 173 67.35 178.05 70.2 178.95 71.9 179 72.95 178.9 74.95 178.75 89.05 179.25 103.15 179.7 133.35 179.25 148.35 179.05 161.8 179.5 168.2 179.85 168.2 175.85 168.2 175.7 168.2 175.55 168 174.4 167.8 173.05 165.35 158.7 163.85 147.65 162.3 136.55 163.3 130.8 163.65 128.6 163.95 127.1 163.3 130 165.2 117.2 166.45 108.3 165.8 106.5 166.45 104.9 167.35 98.7 166.9 91.55 167.85 91.15 184.45 91.4 185.8 90.8 187.2 90.2 188.2 89.15 188 88.8 187.85 88.45
L 188.15 87.95 188.3 87.75 188.8 86.2 188.9 86 189.05 85.85 189.25 85.25 189.45 84.9 189.95 83.5 190 83.3
Q 191.3 82.25 193 76.35 191.85 77.4 190.75 78.05 190.55 78.05 190.4 78.1 186.95 78.95 187.35 76 189.75 71.55 191.6 67.1 193.4 62.65 194.4 60.35 195.4 58 197.65 56.6 195.6 55.65 190.1 53.9 192.8 57 191.7 60.8 190.35 65.5 188.7 70.1 186.15 77.3 177.35 78
L 176.85 78.5
Q 178.8 80.55 182.15 81.6 183.9 82.1 182.95 85.2 182.5 86.65 180.95 85.3 175.95 80.9 166.35 81 165.4 81.5 164.5 81.3 161.25 80.6 160.5 76.15 158.25 63.6 159.35 47 161.1 44.35 163.95 44.15
M 186.4 85.75
Q 185.9 84.6 185.35 83 187.05 81.35 187.4 82.25 187.6 82.9 188.6 83.3 188.55 83.45 188.5 83.55
L 188.4 83.7 188.2 84.35
Q 187.1 87.65 186.4 85.75
M 71.35 82
Q 73.1 78.8 73.45 80.25 74.35 83.5 74.15 86.05 73.9 90.25 72.05 87.55 71.4 86.5 71.4 85 71.4 83.5 71.35 82
M 78.8 176.25
Q 78.35 176 78.35 175 98.75 176.6 121.35 176.25 129.55 176.1 132.45 175.6 140.1 174.25 145.35 176 118.4 178.55 88.35 178.45 82.45 178.45 78.8 176.25 Z"/>
</g>

<path id="Layer3_0_1_STROKES" stroke="#000000" stroke-width="1" stroke-linejoin="round" stroke-linecap="round" fill="none" d="
M 0 0
L 230 0 230 230 0 230 0 0 Z"/>

<path id="Layer0_0_1_STROKES" stroke="#000000" stroke-width="1" stroke-linejoin="round" stroke-linecap="round" fill="none" d="
M 98.45 35.35
L 92.1 39.2
Q 88.7 41.25 83.3 41.95 71.4 42 59.35 51
L 50.8 58.1
Q 43.7 62.85 39.2 63.95 34.6 65.5 36.65 71.5
L 52 96.45
Q 54.15 99.3 59.35 97
L 65 92.75
Q 68.8 92.2 69.35 98 68.75 105.45 71.1 114 72.6 121.1 73.7 130.7 74.8 140.25 70.85 149.9
L 68.1 160.3
Q 68.05 168.6 67.35 174 66.65 179.35 73 179
L 163.95 179.05
Q 168.9 179.2 168.35 175
L 164.85 151.65
Q 161.2 139.05 163.85 128
L 167.35 91 181.35 91
Q 187 91.4 188.35 88
L 198.35 64
Q 201.4 57.55 196.35 55.9 175.1 49.25 168.7 44.9 162.2 40.8 152.35 40 135.4 38.55 132.8 34.8 114.7 41.45 103.6 34.85 102.35 33.9 98.45 35.35 Z"/>
</defs>

<g transform="matrix( 1, 0, 0, 1, 0,0) ">
<use xlink:href="#Layer3_0_FILL"/>

<use xlink:href="#Layer3_0_1_STROKES"/>
</g>

<g transform="matrix( 1, 0, 0, 1, 0,0) ">
<use xlink:href="#Layer2_0_FILL"/>
</g>

<g transform="matrix( 1, 0, 0, 1, 0,0) ">
<use xlink:href="#Layer1_0_FILL"/>
</g>

<g transform="matrix( 1, 0, 0, 1, 0,0) ">
<use xlink:href="#Layer0_0_1_STROKES"/>
</g>
</svg>
