
<svg xmlns="http://www.w3.org/2000/svg" version="1.1" xmlns:xlink="http://www.w3.org/1999/xlink" preserveAspectRatio="none" x="0px" y="0px" width="231px" height="231px" viewBox="0 0 231 231">
<defs>
<g id="Layer3_0_FILL">
<path fill="#B3B3B3" fill-opacity="0.4980392156862745" stroke="none" d="
M 0 0
L 0 230 230 230 230 0 0 0 Z"/>
</g>

<g id="Layer2_0_FILL">
<path fill="#FFFFFF" stroke="none" d="
M 163.75 147
Q 161.7 137 163.85 128
L 167.15 93.35
Q 156.05 90.55 150.7 39.9 143.4 39.25 141.55 38.5 141.35 38.4 141.2 38.35 134.1 41.95 125.85 43.35 114.5 44.25 104.95 42.85
L 92.1 39.2
Q 88.7 41.25 83.05 42.2 84.5 82.8 68.8 95.3 69.2 96.4 69.35 98 68.75 105.45 71.1 114 72.6 121.1 73.7 130.7 74.6 138.8 71.95 147 117.85 149.95 163.75 147 Z"/>
</g>

<g id="Layer1_0_FILL">
<path fill="#000000" fill-opacity="0.2980392156862745" stroke="none" d="
M 140.55 39.95
Q 140.7 40.9 138.45 48.25 137.95 49.9 137.45 50.85 137.25 51.9 136 53.6 130.65 60.85 124.65 64 118.65 67.15 114.1 66.95 109.5 66.7 105.95 64.55 102.4 62.4 100.2 59.95 98 57.5 95.9 53.4
L 93.75 49.2
Q 92.55 46.85 92.1 45.6 91.75 44.7 91.6 43.9
L 91.6 39.6
Q 89.1 40.4 86.55 41.1 84.55 41.6 82.55 42.05
L 82.55 44.45
Q 82.7 44.45 82.8 44.45 83.05 49.7 82.2 61.45 81.8 66.2 81.75 66.45 81.3 70.2 79.6 77.5 78.55 81.85 77.8 83.55 76.9 85.65 74.3 89.45 74.2 89.6 74.15 89.75 72.3 91.8 69.05 95
L 68.45 95 68.65 95.6
Q 69.15 96.95 69.2 97.3 69.45 98.3 69.5 99.25
L 69.6 102.2
Q 69.6 103.4 69.45 104.5
L 69.1 106.1
Q 68.95 106.95 69.65 108.45 70.3 109.95 71.1 112.7 71.9 115.4 71.95 115.8 72 116.15 73.55 126.1 75.1 136.05 73.3 141.65 72.5 144.05 71.65 147
L 74.45 147
Q 74.8 145.2 74.85 143.75 76.2 134.15 75.9 133.7 75.65 133.2 76.55 130.8 77.4 128.4 76.9 121.95 76.85 121.5 76.75 121.15 74.4 112.9 71.35 105 73.4 98 76.7 94.95 80 91.85 77.4 90.9 76.45 90.55 75.9 90.15 78.6 86.15 79.5 83.85 80.2 82.15 81.1 78.45 83 70.5 83.45 66.3 83.65 64.6 83.85 61.2
L 84.2 56.35
Q 84.65 48.75 84.45 44.55 85.25 43.85 85.8 43.55 86.3 43.25 87.9 42.55 89.5 41.85 90.2 45.1 90.5 46.2 91 47.4 91.3 48.1 94.05 53.35 94.6 54.35 95.6 56.35 96.55 58.1 97.45 59.2 100.35 62.85 105.55 65.65 110.7 68.4 118.4 67.45 126.1 66.5 132.1 59.85 138.65 52.75 139.45 50.45 140.25 48.15 141.65 44.25 143 40.35 141.9 38.45 141.4 37.65 140.75 37.85 140.25 38.05 140.25 38.85 140.3 39.25 140.55 39.95
M 165.45 117.35
Q 164.69921875 122.60546875 164.25 125.35 164.475 124.18125 164.65 123.7 164.8 123.05 165.45 117.35
M 167.35 98.7
Q 167.2 96.15 167.2 94.45 167.25 94.4 167.3 94.3 167.5 93.9 167.25 93.55 167.25 93.25 167.3 92.95
L 166.5 92.95
Q 166.3 92.85 166.05 92.75 164.2 91.85 162.2 88.8 159.75 84.95 158.1 81.05 157.5 79.55 157.35 78.75 157.3 76.95 157.15 76.8 156.95 76.65 156.65 74.85 156.35 73.05 155.35 70.3 154.35 67.5 154 65.65 153.85 64.8 153.8 63.35 153.75 61.6 153.7 61 153.6 60.25 152.7 55.95 151.6 51 151.1 40.95 151.05 40.35 150.8 39.9 150.5 39.35 150.05 39.45 149.4 39.55 149.4 40.9 150 51.65 151.2 56.9 152 60.75 152.05 61.3 152.2 62.7 154 70.55 155.65 77.65 158.9 85.7 159.85 88.65 160.9 89.8 162.6 92.4 164.35 93.7 164.3 103.85 164.3 107.55 164.3 112 162.9 115.7 161.45 119.4 159.35 127 157.8 135.5 158.05 147
L 163.75 147
Q 162.35 136.4 163.3 130.8 163.65 128.6 163.95 127.1 163.3 130 165.2 117.2 166.45 108.3 165.8 106.5 166.45 104.9 167.35 98.7 Z"/>
</g>

<path id="Layer3_0_1_STROKES" stroke="#000000" stroke-width="1" stroke-linejoin="round" stroke-linecap="round" fill="none" d="
M 0 0
L 230 0 230 230 0 230 0 0 Z"/>

<path id="Layer0_0_1_STROKES" stroke="#000000" stroke-width="1" stroke-linejoin="round" stroke-linecap="round" fill="none" d="
M 104.95 42.85
L 92.1 39.2
Q 88.7 41.25 83.05 42.2 84.5 82.8 68.8 95.3 69.2 96.4 69.35 98 68.75 105.45 71.1 114 72.6 121.1 73.7 130.7 74.6 138.8 71.95 147 118.3 150.45 163.75 147 161.7 137 163.85 128
L 167.15 93.35
Q 156.05 90.55 150.7 39.9 143.4 39.25 141.55 38.5 141.35 38.4 141.2 38.35 134.1 41.95 125.85 43.35 114.5 44.25 104.95 42.85 Z"/>
</defs>

<g transform="matrix( 1, 0, 0, 1, 0,0) ">
<use xlink:href="#Layer3_0_FILL"/>

<use xlink:href="#Layer3_0_1_STROKES"/>
</g>

<g transform="matrix( 1, 0, 0, 1, 0,0) ">
<use xlink:href="#Layer2_0_FILL"/>
</g>

<g transform="matrix( 1, 0, 0, 1, 0,0) ">
<use xlink:href="#Layer1_0_FILL"/>
</g>

<g transform="matrix( 1, 0, 0, 1, 0,0) ">
<use xlink:href="#Layer0_0_1_STROKES"/>
</g>
</svg>
