
<svg xmlns="http://www.w3.org/2000/svg" version="1.1" xmlns:xlink="http://www.w3.org/1999/xlink" preserveAspectRatio="none" x="0px" y="0px" width="164px" height="145px" viewBox="0 0 164 145">
<defs>
<g id="Layer2_0_FILL">
<path fill="#FFFFFF" stroke="none" d="
M 160.85 21.95
Q 139.6 15.3 133.2 10.95 126.7 6.85 116.85 6.05 99.9 4.6 97.3 0.85 79.2 7.5 68.1 0.9 66.85 -0.05 62.95 1.4
L 56.6 5.25
Q 53.2 7.3 47.8 8 35.9 8.05 23.85 17.05
L 15.3 24.15
Q 8.2 28.9 3.7 30 -0.9 31.55 1.15 37.55
L 16.5 62.5
Q 18.65 65.35 23.85 63.05
L 29.5 58.8
Q 33.3 58.25 33.85 64.05 33.25 71.5 34.1 79.05 35.55 87.15 34.5 92.25 32.9 101.35 32.85 110.95
L 32.6 126.35
Q 32.5978515625 135.0982421875 31.85 140.2 31.1521484375 145.3017578125 35.85 145.55
L 128.45 145.1
Q 133.4 145.25 132.85 141.05
L 132.35 116.2 132.85 92.05 131.85 57.05 145.85 57.05
Q 151.5 57.45 152.85 54.05
L 162.85 30.05
Q 165.9 23.6 160.85 21.95 Z"/>
</g>

<g id="Layer1_0_FILL">
<path fill="#000000" fill-opacity="0.2980392156862745" stroke="none" d="
M 104.1 4.2
Q 103 4.15 102.2 3.85 101.4 3.5 101.1 3.75 100.8 4.05 100.8 4.75 100.8 5 100.8 5.95
L 100.8 6.05
Q 100.7 7.1 100.45 8 100.25 8.5 99.95 9.15
L 99.7 9.9
Q 99.2 11.1 98.8 11.6 98.85 11.75 98.85 11.85 98.5 12.4 97.95 13.05
L 96.25 15.35
Q 95.55 16.35 94.95 16.8 94.6 17.15 93.55 17.7
L 90.6 19.15
Q 89.15 19.85 87.65 20.25 86.65 20.65 82.2 20.5 77.7 20.3 73.25 18.15 68.75 15.95 68 15.4 67.35 15.05 66.95 14.75 66.45 14.35 66 13.95 65.55 13.4 64.85 12.1 64.65 11.7 64.45 11.35
L 64.45 11.3
Q 64.2 10.65 63.85 10.05
L 63.8 10.05
Q 63.55 9.55 63.3 9.15 63.2 8.55 62.85 8.3 60.6 0.8 57.3 5.25 49.8 7.8 41.85 9.05 41.35 9.05 39.95 8.9 38.55 8.75 31.6 12.05 26.6 15.05 29.75 14.05 31.75 13.4 32.05 13.2 36.25 13.25 36.7 14.85 36.9 15.55 36.95 16.15 37.45 22 38.15 26.15 38.85 30.05 39.8 33.8 40.95 38.45 39.85 41.05 40.3 44 36.95 42.75 36.35 42.55 36.05 42.65 31.85 44.05 28.15 46.55 27.4 47.05 27.6 47.8 29 52.5 25.85 55.05 23.4 59.7 21.45 56.3 14.1 43.8 6.85 31.05 15.45 31.45 21.15 34.45 21.35 34.55 21.3 34.1 20.95 30.95 18.5 29.7 13.2 26.9 19.55 24.35 22.85 23.05 24.5 16.95 22.95 17.9 20.5 19.5 18.6 20.65 13.8 24.9 13.5 25.75 11.3 26.6 9.05 27.45 8.85 28.05 8.35 28.05 8.1 28.3 7.35 29.05 6.45 29.65
L 6.35 29.45
Q 6.05 29.15 5.6 29.15 5.05 29.15 4.8 29.65 4.75 29.8 4.7 29.9 4.4 29.95 4.05 30.15
L 3.4 30.55
Q 3.05 30.4 2.55 30.55 2.2 30.7 2 31 1.8 31.1 1.5 31.4
L 1.1 31.85
Q 0.85 32.3 1.05 33.3
L 1.05 35.3
Q 1.05 35.35 1.05 35.4 1 35.6 1.05 35.85 1.05 35.9 1.1 36 1.15 36.75 1.45 37.25
L 1.65 37.65 1.75 38.15
Q 1.8 38.35 2.05 38.7 2.4 39.45 2.6 39.55 2.7 39.65 2.85 39.7
L 3.75 41.05
Q 3.85 41.2 4.05 41.55 4.1 41.6 4.15 41.65 4.35 42.1 4.55 42.6 5.45 44.6 6 45.55 7.1 47.55 8.65 49.75 11.35 53.75 12.75 55.7 13.3 56.45 13.55 57
L 13.95 58.1
Q 14.25 58.7 15.05 59.75 15.2 59.95 15.45 60.35 15.35 60.8 15.7 61.3 15.9 61.65 16.4 62.35 16.55 62.55 16.8 63 17 63.35 17.3 63.45 17.65 63.55 18.35 63.45 18.75 63.45 19.4 63.8 19.95 64 21.1 63.8 21.6 63.75 22.6 63.45 23.75 63 24.85 62.15
L 28.05 59.65
Q 28.8 59.1 31.6 58.95 31.9 58.9 32.15 59 32.2 59.15 32.25 59.35
L 33.15 61.65
Q 33.65 63 33.7 63.35 33.95 64.35 34 65.3
L 34.1 68.25
Q 34.1 69.45 33.95 70.55
L 33.6 72.15
Q 33.45 73 33.55 74.1 33.65 76.45 34.5 80.25 34.55 80.6 34.7 80.85 34.65 81.9 34.7 82.15 34.25 90.65 34.15 94.55 34.1 94.5 34.1 94.45 33.75 96.2 33.75 97.2 33.7 98.2 33.5 99.6 33.25 101 32.95 103.15 32.65 105.3 32.95 107.2 32.8 122.45 32.75 127.75 32.65 133 32.55 129.9 32.45 126.8 32.15 131.9 31.8 136.95 31.7 137.3 31.65 137.3 31.65 137.35 31.6 137.6 31.65 137.95 31.7 138.4 31.85 139.05 31.841015625 144.1115234375 34.65 144.95 36.3849609375 145.0279296875 37.45 144.95 39.45 144.8 53.55 145.3 67.65 145.75 97.85 145.3 112.85 145.1 126.3 145.55 132.7 145.9 132.7 141.9 132.7 137.85 133 134.8 132.2 130.7 132.45 123.3 132.7 115.9 132.8 118.5 132.85 121.05 132.95 114.1 133 107.15 132.75 104.35 132.5 101.55 132.6 95.25 132.75 88.95 131.95 66.9 128.85 81.05 128.25 82.25 127.85 83.05 127.35 83.6 123.05 88.1 123.85 93.05 121.75 94.7 123.9 97.05 124.35 97.55 124.85 97.55 127 97.45 126.3 98.75 125.1 100.85 125.1 104.05 125 110.3 126.55 119.1 128.45 130.15 123.85 135.05 118.2 139.9 107.85 139.8 81.3 139.65 50.85 139.55 50.35 139.55 49.9 139.6 42 140.35 39.85 136.05 39.85 135.05 39.85 134.05
L 39.85 133.05
Q 37.9 134 37.15 131.95 35.2 126.25 36.05 118.05 37.05 108.75 35.85 97.05 37.75 93.8 38.45 96.9 39.05 99.6 40.15 97.65 41.9 94.45 41.4 88 41.35 87.55 41.25 87.2 38.9 78.95 35.85 71.05 39.05 66.25 42.1 61.55 44.5 57.9 41.9 56.95 37.7 55.4 41.35 52.45 41.85 52.05 42 51.05 43.75 39.95 42.85 28.95 42.3 22.55 40.6 18.15 40.35 17.55 40.25 17 39.6 12.45 44.1 14.45 44.35 14.55 44.85 14.05 44.35 13.05 43.55 12.45 39.7 9.7 50.8 10.75 54.4 11.05 57.9 11.5 58.35 11.55 58.85 11.05 59.85 10.15 61.7 10.05 61.8 10.15 61.9 10.25 62.15 10.55 62.25 12.5 67.1 18.5 76 21.15 84.9 23.8 94.25 19.2 98.55 15.75 101.2 11.65 103.85 7.55 104.85 6.45 105.75 5.3 106.75 5.15 106.8 5.15 106.85 5.15 106.85 5.1 106.85 5.05 106.8 5.05 106.75 5.05 106.85 4.95 106.9 4.75 107 4.25 106.1 4.25 105.15 4.25 104.1 4.2
M 35.85 48.05
Q 37.6 44.85 37.95 46.3 38.85 49.55 38.65 52.1 38.4 56.3 36.55 53.6 35.9 52.55 35.9 51.05 35.9 49.55 35.85 48.05
M 43.3 142.3
Q 42.85 142.05 42.85 141.05 63.25 142.65 85.85 142.3 94.05 142.15 96.95 141.65 104.6 140.3 109.85 142.05 82.9 144.6 52.85 144.5 46.95 144.5 43.3 142.3
M 98.25 3.25
Q 98.3 3.15 98.7 2.05 98.7 1.95 98.65 1.9 98.6 1.5 98.15 1.15 97.55 0.65 96.85 0.7 96.75 0.7 95.6 1.3 95.15 1.55 94.6 1.45 94.1 1.35 93.85 1.45 93.6 1.65 93.5 2.1 93.5 2.5 93.6 2.7 93.7 2.85 93.85 3
L 93.85 3.05
Q 93.9 3.05 94 3.05 94.2 3.05 94.4 3.15 94.5 3.2 94.55 3.3 97.7 7.4 91.85 8.05 91.35 8.05 90.9 8.2 84 10.9 76.85 9.05 76.35 9.05 75.85 9.05 72.55 9.05 70.2 8.2 70 8.1 69.85 8.05
L 69.45 8.05 69.45 8
Q 69 7.7 68.75 6.95 68 4.8 67.85 4.55 67.85 4.3 67.85 4.05 67.85 3.55 67.85 3.05 68.35 3.05 68.85 3.05 69.35 3.05 69.85 3.05 69.85 2.55 69.85 2.05 70.2 2.05 70.55 2.05 69.95 1.75 68.85 1.05 68.85 1.45 67.85 0.9 66.85 0.35 63.35 1.3 64.85 2.55 64.85 3.05 65.15 2.95 65.4 2.95 65.45 3.3 65.65 3.6
L 67.7 8.15
Q 68.3 9.45 68.75 9.85 68.8 9.9 68.85 9.95 68.85 10 68.85 10.05 70 11.45 71.15 12.75 71.9 14.35 73.05 15.25 73.9 15.85 75.55 16.45 77.8 17.2 78.65 17.4 80.6 17.8 83.65 17.5 88.85 16.85 90.25 15.95 91.65 15 91.8 14.85
L 93.85 13.05
Q 95.25 11.8 95.65 10.75 95.85 10.5 95.85 10.05 95.85 9.55 95.85 9.05 96.85 6.05 98.25 3.25
M 94.15 9.35
Q 94.1 9.4 93.6 10.4 93.1 11.4 91.4 13.3 89.7 15.15 82.75 16.15 73.3 15.4 70.6 9.6 80.25 11.7 84.8 10.9 88.55 10.25 91.85 9.05 93.05 9.05 94.15 9.35
M 128.45 10.2
Q 131.25 10 131 9.7 130.7 9.35 125.85 8.05 125.65 7.7 125.25 7.55 124.9 7.4 123.35 7.15 123.85 8.55 123.85 9.05 123.85 13.05 121.85 15.05 120.95 39.35 128.85 55.1 129.1 56.15 131.85 64.75 131.4 57.6 132.35 57.2 148.95 57.45 150.3 56.85 151.7 56.25 152.7 55.2 152.5 54.85 152.35 54.5
L 152.65 54 152.8 53.8 153.3 52.25 153.4 52.05 153.55 51.9 153.75 51.3 153.95 50.95 154.45 49.55 154.5 49.35
Q 155.8 48.3 157.5 42.4 156.35 43.45 155.25 44.1 155.05 44.1 154.9 44.15 151.45 45 151.85 42.05 154.25 37.6 156.1 33.15 157.9 28.7 158.9 26.4 159.9 24.05 162.15 22.65 160.1 21.7 154.6 19.95 157.3 23.05 156.2 26.85 154.85 31.55 153.2 36.15 150.65 43.35 141.85 44.05
L 141.35 44.55
Q 143.3 46.6 146.65 47.65 148.4 48.15 147.45 51.25 147 52.7 145.45 51.35 140.45 46.95 130.85 47.05 129.9 47.55 129 47.35 125.75 46.65 125 42.2 122.75 29.65 123.85 13.05 125.6 10.4 128.45 10.2
M 151.9 48.3
Q 152.1 48.95 153.1 49.35 153.05 49.5 153 49.6
L 152.9 49.75 152.7 50.4
Q 151.6 53.7 150.9 51.8 150.4 50.65 149.85 49.05 151.55 47.4 151.9 48.3 Z"/>
</g>

<path id="Layer0_0_1_STROKES" stroke="#000000" stroke-width="1" stroke-linejoin="round" stroke-linecap="round" fill="none" d="
M 939.5 467.25
L 933.15 471.1
Q 929.7595703125 473.130078125 924.35 473.85 912.44375 473.9125 900.4 482.9
L 891.85 490
Q 884.7267578125 494.7625 880.25 495.85 875.6595703125 497.3880859375 877.7 503.4
L 893.05 528.35
Q 895.1884765625 531.1865234375 900.4 528.9
L 906.05 524.65
Q 909.869921875 524.08203125 910.4 529.9 909.7759765625 537.373046875 910.65 544.9 912.0892578125 552.9822265625 911.05 558.1 909.463671875 567.2 909.4 576.8
L 909.15 592.2
Q 909.10078125 600.5080078125 908.4 605.875 907.698828125 611.241796875 914.05 610.9
L 1005 610.95
Q 1009.967578125 611.099609375 1009.4 606.9
L 1008.9 582.05 1009.4 557.9 1008.4 522.9 1022.4 522.9
Q 1028.07421875 523.29140625 1029.4 519.9
L 1039.4 495.9
Q 1042.4359375 489.428515625 1037.4 487.8 1016.1716796875 481.1310546875 1009.75 476.8 1003.25546875 472.704296875 993.4 471.9 976.4314453125 470.46484375 973.85 466.7 955.72734375 473.36484375 944.65 466.75 943.4234375 465.8095703125 939.5 467.25 Z"/>
</defs>

<g transform="matrix( 1, 0, 0, 1, 0,0) ">
<use xlink:href="#Layer2_0_FILL"/>
</g>

<g transform="matrix( 1, 0, 0, 1, 0,0) ">
<use xlink:href="#Layer1_0_FILL"/>
</g>

<g transform="matrix( 1, 0, 0, 1, -876.55,-465.85) ">
<use xlink:href="#Layer0_0_1_STROKES"/>
</g>
</svg>
