
<svg xmlns="http://www.w3.org/2000/svg" version="1.1" xmlns:xlink="http://www.w3.org/1999/xlink" preserveAspectRatio="none" x="0px" y="0px" width="142px" height="142px" viewBox="0 0 142 142">
<defs>
<g id="Layer0_0_FILL">
<path fill="#000000" stroke="none" d="
M 126.7 18.8
Q 126.65 18.75 126.6 18.7
L 126.55 18.65
Q 113.6 2.15 103.2 0.85
L 103.2 0.9
Q 96.25 -0.25 94.4 0.1
L 94.45 0.05
Q 93.1 0.2 92.7 0.9 92 1.45 92 2.2 91.85 2.85 92.4 3.75 92.75 4.55 94.95 5.7 100.7 8.65 110.55 20.15 110.6 20.2 110.65 20.3 127.95 41.3 120 80.45 114.71640625 105.72109375 107.2 114.1 107.1734375 114.1240234375 107.15 114.15 103.133203125 118.144140625 100.45 117.2
L 100.4 117.2
Q 97.55 115.3 95.8 107.75
L 95.8 96.85
Q 98.75 54.65 87.85 43.95 87.8 43.9 87.7 43.85 79.9 35 71.55 35.15
L 71.5 35.15
Q 63.1 35 54.2 43.95 43.25 54.65 46.2 96.85 46.2 96.9 46.2 96.95
L 46.2 107.75
Q 44.45 115.3 41.6 117.2
L 41.55 117.2
Q 38.85 118.15 34.85 114.1 34.8 114.05 34.75 114 27.25 105.6 22.1 80.45 14.1 41.3 31.4 20.3 31.45 20.2 31.5 20.15 41.35 8.65 47.05 5.7 49.3 4.55 49.7 3.75
L 49.65 3.8
Q 50.2 2.9 50.1 2.2 50.05 1.4 49.4 0.85 48.9 0.2 47.55 0.05
L 47.65 0.1
Q 45.75 -0.25 38.8 0.9
L 38.85 0.85
Q 28.5 2.2 15.7 18.4 15.3 18.6 15.25 19.05 -0.2 42.35 0 71.9 0.25 106.25 23.25 131 39.3 148.35 49.85 138.6 55.5880859375 134.73125 58.5 121.8 58.5 121.65 58.5 121.55 59.65 115.95 60.3 108.65 60.3 108.6 60.3 108.55 60.3 108.5 60.3 108.45 60.3 108.3 60.3 108.1
L 60.3 90.95
Q 67.1 104 70.95 103.5 74.7 103.35 81.7 90.7
L 81.7 108.1
Q 81.7 108.3 81.7 108.45 81.7 108.5 81.7 108.55 81.7 108.6 81.7 108.65 82.4 116 83.6 121.6 83.6 121.65 83.65 121.75 86.4 134.75 92.25 138.6 102.75 148.35 118.9 131 141.75 106.25 142 71.9 142.2 42.2 126.7 18.8
M 71.75 77.85
Q 71 78.15 70.25 77.85 61.75 74.5 62.55 62.95 63.25 52.75 70.3 50.15
L 70.25 50.15
Q 71 49.85 71.75 50.15 78.75 52.75 79.45 62.95 80.25 74.5 71.75 77.85 Z"/>
</g>
</defs>

<g transform="matrix( 1, 0, 0, 1, 0,0) ">
<use xlink:href="#Layer0_0_FILL"/>
</g>
</svg>
